<mxfile host="Electron" agent="Mozilla/5.0 (Windows NT 10.0; Win64; x64) AppleWebKit/537.36 (KHTML, like Gecko) draw.io/24.7.17 Chrome/128.0.6613.36 Electron/32.0.1 Safari/537.36" version="24.7.17">
  <diagram name="Pagina-1" id="4A0oew8YUE4pxpGcEKqX">
    <mxGraphModel dx="1420" dy="822" grid="1" gridSize="10" guides="1" tooltips="1" connect="1" arrows="1" fold="1" page="1" pageScale="1" pageWidth="827" pageHeight="1169" math="1" shadow="0">
      <root>
        <mxCell id="0" />
        <mxCell id="1" parent="0" />
        <mxCell id="kP2N72a48AvkfkjGi34w-88" value="" style="rounded=1;whiteSpace=wrap;html=1;fillColor=none;strokeColor=#b46504;dashed=1;" parent="1" vertex="1">
          <mxGeometry x="820" y="300" width="360" height="90" as="geometry" />
        </mxCell>
        <mxCell id="kP2N72a48AvkfkjGi34w-89" style="edgeStyle=orthogonalEdgeStyle;rounded=0;orthogonalLoop=1;jettySize=auto;html=1;entryX=0;entryY=0.5;entryDx=0;entryDy=0;strokeWidth=2;" parent="1" source="kP2N72a48AvkfkjGi34w-90" target="kP2N72a48AvkfkjGi34w-93" edge="1">
          <mxGeometry relative="1" as="geometry" />
        </mxCell>
        <mxCell id="kP2N72a48AvkfkjGi34w-90" value="" style="ellipse;whiteSpace=wrap;html=1;aspect=fixed;fillColor=none;" parent="1" vertex="1">
          <mxGeometry x="170" y="450" width="20" height="20" as="geometry" />
        </mxCell>
        <mxCell id="kP2N72a48AvkfkjGi34w-91" style="edgeStyle=orthogonalEdgeStyle;rounded=0;orthogonalLoop=1;jettySize=auto;html=1;entryX=0;entryY=0.5;entryDx=0;entryDy=0;strokeWidth=2;" parent="1" source="kP2N72a48AvkfkjGi34w-93" target="kP2N72a48AvkfkjGi34w-96" edge="1">
          <mxGeometry relative="1" as="geometry" />
        </mxCell>
        <mxCell id="kP2N72a48AvkfkjGi34w-92" value="\(\omega_{fb}(t)\)" style="edgeLabel;html=1;align=center;verticalAlign=middle;resizable=0;points=[];" parent="kP2N72a48AvkfkjGi34w-91" vertex="1" connectable="0">
          <mxGeometry x="-0.2" y="-1" relative="1" as="geometry">
            <mxPoint y="9" as="offset" />
          </mxGeometry>
        </mxCell>
        <mxCell id="kP2N72a48AvkfkjGi34w-93" value="P" style="rounded=0;whiteSpace=wrap;html=1;fillColor=none;fontSize=20;" parent="1" vertex="1">
          <mxGeometry x="240" y="440" width="40" height="40" as="geometry" />
        </mxCell>
        <mxCell id="kP2N72a48AvkfkjGi34w-94" style="edgeStyle=orthogonalEdgeStyle;rounded=0;orthogonalLoop=1;jettySize=auto;html=1;entryX=0;entryY=0.5;entryDx=0;entryDy=0;strokeWidth=2;" parent="1" source="kP2N72a48AvkfkjGi34w-96" target="kP2N72a48AvkfkjGi34w-98" edge="1">
          <mxGeometry relative="1" as="geometry" />
        </mxCell>
        <mxCell id="kP2N72a48AvkfkjGi34w-95" value="\(\omega_{rif}(t)\)" style="edgeLabel;html=1;align=center;verticalAlign=middle;resizable=0;points=[];" parent="kP2N72a48AvkfkjGi34w-94" vertex="1" connectable="0">
          <mxGeometry x="-0.4322" relative="1" as="geometry">
            <mxPoint x="9" y="10" as="offset" />
          </mxGeometry>
        </mxCell>
        <mxCell id="kP2N72a48AvkfkjGi34w-96" value="" style="ellipse;whiteSpace=wrap;html=1;aspect=fixed;fillColor=none;" parent="1" vertex="1">
          <mxGeometry x="330" y="450" width="20" height="20" as="geometry" />
        </mxCell>
        <mxCell id="kP2N72a48AvkfkjGi34w-97" style="edgeStyle=orthogonalEdgeStyle;rounded=0;orthogonalLoop=1;jettySize=auto;html=1;entryX=0;entryY=0.5;entryDx=0;entryDy=0;strokeWidth=2;" parent="1" source="kP2N72a48AvkfkjGi34w-98" target="kP2N72a48AvkfkjGi34w-101" edge="1">
          <mxGeometry relative="1" as="geometry" />
        </mxCell>
        <mxCell id="kP2N72a48AvkfkjGi34w-98" value="" style="ellipse;whiteSpace=wrap;html=1;aspect=fixed;fillColor=none;" parent="1" vertex="1">
          <mxGeometry x="390" y="450" width="20" height="20" as="geometry" />
        </mxCell>
        <mxCell id="kP2N72a48AvkfkjGi34w-99" style="edgeStyle=orthogonalEdgeStyle;rounded=0;orthogonalLoop=1;jettySize=auto;html=1;entryX=0;entryY=0.5;entryDx=0;entryDy=0;strokeWidth=2;" parent="1" source="kP2N72a48AvkfkjGi34w-101" target="kP2N72a48AvkfkjGi34w-104" edge="1">
          <mxGeometry relative="1" as="geometry" />
        </mxCell>
        <mxCell id="kP2N72a48AvkfkjGi34w-100" value="\(i_{fb}(t)\)" style="edgeLabel;html=1;align=center;verticalAlign=middle;resizable=0;points=[];" parent="kP2N72a48AvkfkjGi34w-99" vertex="1" connectable="0">
          <mxGeometry x="-0.2711" y="1" relative="1" as="geometry">
            <mxPoint x="2" y="11" as="offset" />
          </mxGeometry>
        </mxCell>
        <mxCell id="kP2N72a48AvkfkjGi34w-101" value="PI" style="rounded=0;whiteSpace=wrap;html=1;fillColor=none;fontSize=20;" parent="1" vertex="1">
          <mxGeometry x="440" y="440" width="40" height="40" as="geometry" />
        </mxCell>
        <mxCell id="kP2N72a48AvkfkjGi34w-102" style="edgeStyle=orthogonalEdgeStyle;rounded=0;orthogonalLoop=1;jettySize=auto;html=1;entryX=0;entryY=0.5;entryDx=0;entryDy=0;strokeWidth=2;" parent="1" source="kP2N72a48AvkfkjGi34w-104" target="kP2N72a48AvkfkjGi34w-112" edge="1">
          <mxGeometry relative="1" as="geometry" />
        </mxCell>
        <mxCell id="kP2N72a48AvkfkjGi34w-103" value="\(i_{rif}(t)\)" style="edgeLabel;html=1;align=center;verticalAlign=middle;resizable=0;points=[];" parent="kP2N72a48AvkfkjGi34w-102" vertex="1" connectable="0">
          <mxGeometry x="-0.2167" y="1" relative="1" as="geometry">
            <mxPoint y="11" as="offset" />
          </mxGeometry>
        </mxCell>
        <mxCell id="kP2N72a48AvkfkjGi34w-104" value="" style="ellipse;whiteSpace=wrap;html=1;aspect=fixed;fillColor=none;" parent="1" vertex="1">
          <mxGeometry x="530" y="450" width="20" height="20" as="geometry" />
        </mxCell>
        <mxCell id="kP2N72a48AvkfkjGi34w-105" style="edgeStyle=orthogonalEdgeStyle;rounded=0;orthogonalLoop=1;jettySize=auto;html=1;entryX=0;entryY=0.5;entryDx=0;entryDy=0;strokeWidth=2;" parent="1" edge="1">
          <mxGeometry relative="1" as="geometry">
            <mxPoint x="120" y="459.83" as="sourcePoint" />
            <mxPoint x="170" y="459.83" as="targetPoint" />
          </mxGeometry>
        </mxCell>
        <mxCell id="kP2N72a48AvkfkjGi34w-106" value="\(\theta_{rif}(t)\)" style="edgeLabel;html=1;align=center;verticalAlign=middle;resizable=0;points=[];" parent="kP2N72a48AvkfkjGi34w-105" vertex="1" connectable="0">
          <mxGeometry x="-0.64" relative="1" as="geometry">
            <mxPoint x="11" y="-10" as="offset" />
          </mxGeometry>
        </mxCell>
        <mxCell id="kP2N72a48AvkfkjGi34w-107" value="\(+\)" style="text;html=1;align=center;verticalAlign=middle;whiteSpace=wrap;rounded=0;" parent="1" vertex="1">
          <mxGeometry x="140" y="460" width="30" height="20" as="geometry" />
        </mxCell>
        <mxCell id="kP2N72a48AvkfkjGi34w-108" value="\(-\)" style="text;html=1;align=center;verticalAlign=middle;whiteSpace=wrap;rounded=0;" parent="1" vertex="1">
          <mxGeometry x="180" y="470" width="30" height="20" as="geometry" />
        </mxCell>
        <mxCell id="kP2N72a48AvkfkjGi34w-109" value="\(+\)" style="text;html=1;align=center;verticalAlign=middle;whiteSpace=wrap;rounded=0;" parent="1" vertex="1">
          <mxGeometry x="300" y="440" width="30" height="20" as="geometry" />
        </mxCell>
        <mxCell id="kP2N72a48AvkfkjGi34w-110" value="\(+\)" style="text;html=1;align=center;verticalAlign=middle;whiteSpace=wrap;rounded=0;" parent="1" vertex="1">
          <mxGeometry x="340" y="420" width="30" height="20" as="geometry" />
        </mxCell>
        <mxCell id="kP2N72a48AvkfkjGi34w-111" style="edgeStyle=orthogonalEdgeStyle;rounded=0;orthogonalLoop=1;jettySize=auto;html=1;entryX=0;entryY=0.5;entryDx=0;entryDy=0;strokeWidth=2;" parent="1" source="kP2N72a48AvkfkjGi34w-112" target="kP2N72a48AvkfkjGi34w-113" edge="1">
          <mxGeometry relative="1" as="geometry" />
        </mxCell>
        <mxCell id="kP2N72a48AvkfkjGi34w-112" value="" style="ellipse;whiteSpace=wrap;html=1;aspect=fixed;fillColor=none;" parent="1" vertex="1">
          <mxGeometry x="610" y="450" width="20" height="20" as="geometry" />
        </mxCell>
        <mxCell id="kP2N72a48AvkfkjGi34w-113" value="PI" style="rounded=0;whiteSpace=wrap;html=1;fillColor=none;fontSize=20;" parent="1" vertex="1">
          <mxGeometry x="680" y="440" width="40" height="40" as="geometry" />
        </mxCell>
        <mxCell id="kP2N72a48AvkfkjGi34w-114" style="edgeStyle=orthogonalEdgeStyle;rounded=0;orthogonalLoop=1;jettySize=auto;html=1;entryX=0;entryY=0.5;entryDx=0;entryDy=0;strokeWidth=2;" parent="1" target="kP2N72a48AvkfkjGi34w-118" edge="1">
          <mxGeometry relative="1" as="geometry">
            <mxPoint x="720" y="460" as="sourcePoint" />
          </mxGeometry>
        </mxCell>
        <mxCell id="kP2N72a48AvkfkjGi34w-115" value="\(V_{fb}(t)\)" style="edgeLabel;html=1;align=center;verticalAlign=middle;resizable=0;points=[];" parent="kP2N72a48AvkfkjGi34w-114" vertex="1" connectable="0">
          <mxGeometry x="-0.2167" y="1" relative="1" as="geometry">
            <mxPoint y="-9" as="offset" />
          </mxGeometry>
        </mxCell>
        <mxCell id="kP2N72a48AvkfkjGi34w-116" style="edgeStyle=orthogonalEdgeStyle;rounded=0;orthogonalLoop=1;jettySize=auto;html=1;strokeWidth=2;" parent="1" source="kP2N72a48AvkfkjGi34w-118" edge="1">
          <mxGeometry relative="1" as="geometry">
            <mxPoint x="880" y="460" as="targetPoint" />
          </mxGeometry>
        </mxCell>
        <mxCell id="kP2N72a48AvkfkjGi34w-117" value="\(V_a(t)\)" style="edgeLabel;html=1;align=center;verticalAlign=middle;resizable=0;points=[];" parent="kP2N72a48AvkfkjGi34w-116" vertex="1" connectable="0">
          <mxGeometry x="-0.2608" relative="1" as="geometry">
            <mxPoint y="-10" as="offset" />
          </mxGeometry>
        </mxCell>
        <mxCell id="kP2N72a48AvkfkjGi34w-118" value="" style="ellipse;whiteSpace=wrap;html=1;aspect=fixed;fillColor=none;" parent="1" vertex="1">
          <mxGeometry x="780" y="450" width="20" height="20" as="geometry" />
        </mxCell>
        <mxCell id="kP2N72a48AvkfkjGi34w-119" style="edgeStyle=orthogonalEdgeStyle;rounded=0;orthogonalLoop=1;jettySize=auto;html=1;strokeWidth=2;" parent="1" source="kP2N72a48AvkfkjGi34w-122" edge="1">
          <mxGeometry relative="1" as="geometry">
            <mxPoint x="1070" y="460" as="targetPoint" />
          </mxGeometry>
        </mxCell>
        <mxCell id="kP2N72a48AvkfkjGi34w-120" value="\(\omega(t)\)" style="edgeLabel;html=1;align=center;verticalAlign=middle;resizable=0;points=[];" parent="kP2N72a48AvkfkjGi34w-119" vertex="1" connectable="0">
          <mxGeometry x="-0.3328" relative="1" as="geometry">
            <mxPoint x="3" y="-10" as="offset" />
          </mxGeometry>
        </mxCell>
        <mxCell id="kP2N72a48AvkfkjGi34w-121" style="edgeStyle=orthogonalEdgeStyle;rounded=0;orthogonalLoop=1;jettySize=auto;html=1;entryX=0.5;entryY=1;entryDx=0;entryDy=0;fillColor=#fad9d5;strokeColor=#ae4132;strokeWidth=2;" parent="1" source="kP2N72a48AvkfkjGi34w-122" target="kP2N72a48AvkfkjGi34w-112" edge="1">
          <mxGeometry relative="1" as="geometry">
            <Array as="points">
              <mxPoint x="925" y="500" />
              <mxPoint x="620" y="500" />
            </Array>
          </mxGeometry>
        </mxCell>
        <mxCell id="kP2N72a48AvkfkjGi34w-122" value="Motore DC" style="rounded=0;whiteSpace=wrap;html=1;fillColor=#fad7ac;fontSize=17;strokeColor=#b46504;" parent="1" vertex="1">
          <mxGeometry x="880" y="440" width="90" height="40" as="geometry" />
        </mxCell>
        <mxCell id="kP2N72a48AvkfkjGi34w-123" style="edgeStyle=orthogonalEdgeStyle;rounded=0;orthogonalLoop=1;jettySize=auto;html=1;strokeWidth=2;" parent="1" source="kP2N72a48AvkfkjGi34w-125" edge="1">
          <mxGeometry relative="1" as="geometry">
            <mxPoint x="1170" y="460" as="targetPoint" />
          </mxGeometry>
        </mxCell>
        <mxCell id="kP2N72a48AvkfkjGi34w-124" value="\(\theta(t)\)" style="edgeLabel;html=1;align=center;verticalAlign=middle;resizable=0;points=[];" parent="kP2N72a48AvkfkjGi34w-123" vertex="1" connectable="0">
          <mxGeometry x="-0.2416" y="-1" relative="1" as="geometry">
            <mxPoint y="-11" as="offset" />
          </mxGeometry>
        </mxCell>
        <mxCell id="kP2N72a48AvkfkjGi34w-125" value="\(\displaystyle\int\)" style="rounded=0;whiteSpace=wrap;html=1;fillColor=none;fontSize=12;" parent="1" vertex="1">
          <mxGeometry x="1070" y="440" width="40" height="40" as="geometry" />
        </mxCell>
        <mxCell id="kP2N72a48AvkfkjGi34w-126" value="\(k_m\)&amp;nbsp;" style="triangle;whiteSpace=wrap;html=1;fillColor=none;" parent="1" vertex="1">
          <mxGeometry x="375" y="340" width="35" height="60" as="geometry" />
        </mxCell>
        <mxCell id="kP2N72a48AvkfkjGi34w-127" style="edgeStyle=orthogonalEdgeStyle;rounded=0;orthogonalLoop=1;jettySize=auto;html=1;entryX=0;entryY=0.5;entryDx=0;entryDy=0;fillColor=#b1ddf0;strokeColor=#10739e;strokeWidth=2;" parent="1" source="kP2N72a48AvkfkjGi34w-128" target="kP2N72a48AvkfkjGi34w-142" edge="1">
          <mxGeometry relative="1" as="geometry" />
        </mxCell>
        <mxCell id="kP2N72a48AvkfkjGi34w-128" value="\(\frac{b}{k_m}\)&amp;nbsp;" style="triangle;whiteSpace=wrap;html=1;fillColor=none;" parent="1" vertex="1">
          <mxGeometry x="375" y="270" width="35" height="60" as="geometry" />
        </mxCell>
        <mxCell id="kP2N72a48AvkfkjGi34w-129" style="edgeStyle=orthogonalEdgeStyle;rounded=0;orthogonalLoop=1;jettySize=auto;html=1;entryX=0.5;entryY=0;entryDx=0;entryDy=0;fillColor=#b1ddf0;strokeColor=#10739e;strokeWidth=2;" parent="1" source="kP2N72a48AvkfkjGi34w-130" target="kP2N72a48AvkfkjGi34w-142" edge="1">
          <mxGeometry relative="1" as="geometry" />
        </mxCell>
        <mxCell id="kP2N72a48AvkfkjGi34w-130" value="\(\frac{j}{k_m}\)&amp;nbsp;" style="triangle;whiteSpace=wrap;html=1;fillColor=none;" parent="1" vertex="1">
          <mxGeometry x="375" y="200" width="35" height="60" as="geometry" />
        </mxCell>
        <mxCell id="kP2N72a48AvkfkjGi34w-131" value="" style="endArrow=classic;html=1;rounded=0;entryX=0;entryY=0.5;entryDx=0;entryDy=0;fillColor=#b1ddf0;strokeColor=#10739e;strokeWidth=2;" parent="1" source="kP2N72a48AvkfkjGi34w-138" target="kP2N72a48AvkfkjGi34w-126" edge="1">
          <mxGeometry width="50" height="50" relative="1" as="geometry">
            <mxPoint x="120" y="370" as="sourcePoint" />
            <mxPoint x="350" y="370" as="targetPoint" />
          </mxGeometry>
        </mxCell>
        <mxCell id="kP2N72a48AvkfkjGi34w-132" value="\(\frac{d\theta_{rif}(t)}{dt}\)" style="edgeLabel;html=1;align=center;verticalAlign=middle;resizable=0;points=[];" parent="1" vertex="1" connectable="0">
          <mxGeometry x="139.99761904761903" y="339.99999999999994" as="geometry">
            <mxPoint y="8" as="offset" />
          </mxGeometry>
        </mxCell>
        <mxCell id="kP2N72a48AvkfkjGi34w-133" value="" style="endArrow=classic;html=1;rounded=0;entryX=0;entryY=0.5;entryDx=0;entryDy=0;fillColor=#b1ddf0;strokeColor=#10739e;strokeWidth=2;" parent="1" edge="1">
          <mxGeometry width="50" height="50" relative="1" as="geometry">
            <mxPoint x="120" y="230" as="sourcePoint" />
            <mxPoint x="375" y="230" as="targetPoint" />
          </mxGeometry>
        </mxCell>
        <mxCell id="kP2N72a48AvkfkjGi34w-134" value="\(\frac{d^2\theta_{rif}(t)}{dt^2}\)" style="edgeLabel;html=1;align=center;verticalAlign=middle;resizable=0;points=[];" parent="1" vertex="1" connectable="0">
          <mxGeometry x="139.99761904761903" y="199.99999999999994" as="geometry">
            <mxPoint y="8" as="offset" />
          </mxGeometry>
        </mxCell>
        <mxCell id="kP2N72a48AvkfkjGi34w-135" value="" style="endArrow=none;html=1;rounded=0;entryDx=0;entryDy=0;endFill=0;fillColor=#b1ddf0;strokeColor=#10739e;strokeWidth=2;" parent="1" target="kP2N72a48AvkfkjGi34w-138" edge="1">
          <mxGeometry width="50" height="50" relative="1" as="geometry">
            <mxPoint x="120" y="370" as="sourcePoint" />
            <mxPoint x="375" y="370" as="targetPoint" />
          </mxGeometry>
        </mxCell>
        <mxCell id="kP2N72a48AvkfkjGi34w-136" style="edgeStyle=orthogonalEdgeStyle;rounded=0;orthogonalLoop=1;jettySize=auto;html=1;entryX=0.5;entryY=0;entryDx=0;entryDy=0;fillColor=#b1ddf0;strokeColor=#10739e;strokeWidth=2;" parent="1" source="kP2N72a48AvkfkjGi34w-138" target="kP2N72a48AvkfkjGi34w-96" edge="1">
          <mxGeometry relative="1" as="geometry" />
        </mxCell>
        <mxCell id="kP2N72a48AvkfkjGi34w-137" style="edgeStyle=orthogonalEdgeStyle;rounded=0;orthogonalLoop=1;jettySize=auto;html=1;entryX=0;entryY=0.5;entryDx=0;entryDy=0;fillColor=#b1ddf0;strokeColor=#10739e;strokeWidth=2;" parent="1" source="kP2N72a48AvkfkjGi34w-138" target="kP2N72a48AvkfkjGi34w-128" edge="1">
          <mxGeometry relative="1" as="geometry">
            <Array as="points">
              <mxPoint x="340" y="300" />
            </Array>
          </mxGeometry>
        </mxCell>
        <mxCell id="kP2N72a48AvkfkjGi34w-138" value="" style="shape=waypoint;sketch=0;fillStyle=solid;size=6;pointerEvents=1;points=[];fillColor=none;resizable=0;rotatable=0;perimeter=centerPerimeter;snapToPoint=1;" parent="1" vertex="1">
          <mxGeometry x="330" y="360" width="20" height="20" as="geometry" />
        </mxCell>
        <mxCell id="kP2N72a48AvkfkjGi34w-139" value="\(\omega_{ff}(t)\)" style="edgeLabel;html=1;align=center;verticalAlign=middle;resizable=0;points=[];" parent="1" vertex="1" connectable="0">
          <mxGeometry x="310" y="470" as="geometry">
            <mxPoint x="9" y="-58" as="offset" />
          </mxGeometry>
        </mxCell>
        <mxCell id="kP2N72a48AvkfkjGi34w-140" style="edgeStyle=orthogonalEdgeStyle;rounded=0;orthogonalLoop=1;jettySize=auto;html=1;entryX=0.5;entryY=0;entryDx=0;entryDy=0;fillColor=#b1ddf0;strokeColor=#10739e;strokeWidth=2;" parent="1" source="kP2N72a48AvkfkjGi34w-142" target="kP2N72a48AvkfkjGi34w-104" edge="1">
          <mxGeometry relative="1" as="geometry" />
        </mxCell>
        <mxCell id="kP2N72a48AvkfkjGi34w-141" style="edgeStyle=orthogonalEdgeStyle;rounded=0;orthogonalLoop=1;jettySize=auto;html=1;entryX=0.5;entryY=0;entryDx=0;entryDy=0;fillColor=#b1ddf0;strokeColor=#10739e;strokeWidth=2;" parent="1" source="kP2N72a48AvkfkjGi34w-142" target="kP2N72a48AvkfkjGi34w-118" edge="1">
          <mxGeometry relative="1" as="geometry" />
        </mxCell>
        <mxCell id="kP2N72a48AvkfkjGi34w-142" value="" style="ellipse;whiteSpace=wrap;html=1;aspect=fixed;fillColor=none;" parent="1" vertex="1">
          <mxGeometry x="530" y="290" width="20" height="20" as="geometry" />
        </mxCell>
        <mxCell id="kP2N72a48AvkfkjGi34w-143" value="\(+\)" style="text;html=1;align=center;verticalAlign=middle;whiteSpace=wrap;rounded=0;" parent="1" vertex="1">
          <mxGeometry x="500" y="280" width="30" height="20" as="geometry" />
        </mxCell>
        <mxCell id="kP2N72a48AvkfkjGi34w-144" value="\(+\)" style="text;html=1;align=center;verticalAlign=middle;whiteSpace=wrap;rounded=0;" parent="1" vertex="1">
          <mxGeometry x="540" y="270" width="30" height="20" as="geometry" />
        </mxCell>
        <mxCell id="kP2N72a48AvkfkjGi34w-145" value="\(+\)" style="text;html=1;align=center;verticalAlign=middle;whiteSpace=wrap;rounded=0;" parent="1" vertex="1">
          <mxGeometry x="540" y="420" width="30" height="20" as="geometry" />
        </mxCell>
        <mxCell id="kP2N72a48AvkfkjGi34w-146" value="\(+\)" style="text;html=1;align=center;verticalAlign=middle;whiteSpace=wrap;rounded=0;" parent="1" vertex="1">
          <mxGeometry x="500" y="430" width="30" height="20" as="geometry" />
        </mxCell>
        <mxCell id="kP2N72a48AvkfkjGi34w-147" value="\(i_{ff}(t)\)" style="edgeLabel;html=1;align=center;verticalAlign=middle;resizable=0;points=[];" parent="1" vertex="1" connectable="0">
          <mxGeometry x="489.9973469387754" y="480" as="geometry">
            <mxPoint x="29" y="-62" as="offset" />
          </mxGeometry>
        </mxCell>
        <mxCell id="kP2N72a48AvkfkjGi34w-148" value="\(+\)" style="text;html=1;align=center;verticalAlign=middle;whiteSpace=wrap;rounded=0;" parent="1" vertex="1">
          <mxGeometry x="797" y="420" width="30" height="20" as="geometry" />
        </mxCell>
        <mxCell id="kP2N72a48AvkfkjGi34w-149" value="\(+\)" style="text;html=1;align=center;verticalAlign=middle;whiteSpace=wrap;rounded=0;" parent="1" vertex="1">
          <mxGeometry x="750" y="460" width="30" height="20" as="geometry" />
        </mxCell>
        <mxCell id="kP2N72a48AvkfkjGi34w-150" value="\(V_{ff}(t)\)" style="edgeLabel;html=1;align=center;verticalAlign=middle;resizable=0;points=[];" parent="1" vertex="1" connectable="0">
          <mxGeometry x="753.823176920504" y="460.40867483509817" as="geometry">
            <mxPoint x="12" y="-33" as="offset" />
          </mxGeometry>
        </mxCell>
        <mxCell id="kP2N72a48AvkfkjGi34w-151" value="\(i_a(t)\)" style="edgeLabel;html=1;align=center;verticalAlign=middle;resizable=0;points=[];" parent="1" vertex="1" connectable="0">
          <mxGeometry x="939.9999999999999" y="500" as="geometry">
            <mxPoint x="8" y="-4" as="offset" />
          </mxGeometry>
        </mxCell>
        <mxCell id="kP2N72a48AvkfkjGi34w-152" value="\(+\)" style="text;html=1;align=center;verticalAlign=middle;whiteSpace=wrap;rounded=0;" parent="1" vertex="1">
          <mxGeometry x="580" y="440" width="30" height="20" as="geometry" />
        </mxCell>
        <mxCell id="kP2N72a48AvkfkjGi34w-153" value="\(-\)" style="text;html=1;align=center;verticalAlign=middle;whiteSpace=wrap;rounded=0;" parent="1" vertex="1">
          <mxGeometry x="620" y="470" width="30" height="20" as="geometry" />
        </mxCell>
        <mxCell id="kP2N72a48AvkfkjGi34w-154" value="\(+\)" style="text;html=1;align=center;verticalAlign=middle;whiteSpace=wrap;rounded=0;" parent="1" vertex="1">
          <mxGeometry x="370" y="440" width="30" height="20" as="geometry" />
        </mxCell>
        <mxCell id="kP2N72a48AvkfkjGi34w-155" value="\(-\)" style="text;html=1;align=center;verticalAlign=middle;whiteSpace=wrap;rounded=0;" parent="1" vertex="1">
          <mxGeometry x="410" y="470" width="30" height="20" as="geometry" />
        </mxCell>
        <mxCell id="kP2N72a48AvkfkjGi34w-156" value="" style="endArrow=classic;html=1;rounded=0;entryX=0.5;entryY=1;entryDx=0;entryDy=0;fillColor=#fad7ac;strokeColor=#b46504;strokeWidth=2;" parent="1" target="kP2N72a48AvkfkjGi34w-98" edge="1">
          <mxGeometry width="50" height="50" relative="1" as="geometry">
            <mxPoint x="1010" y="460" as="sourcePoint" />
            <mxPoint x="650" y="390" as="targetPoint" />
            <Array as="points">
              <mxPoint x="1010" y="550" />
              <mxPoint x="400" y="550" />
            </Array>
          </mxGeometry>
        </mxCell>
        <mxCell id="kP2N72a48AvkfkjGi34w-157" value="" style="endArrow=classic;html=1;rounded=0;entryX=0.5;entryY=1;entryDx=0;entryDy=0;fillColor=#b0e3e6;strokeColor=#0e8088;strokeWidth=2;" parent="1" target="kP2N72a48AvkfkjGi34w-90" edge="1">
          <mxGeometry width="50" height="50" relative="1" as="geometry">
            <mxPoint x="1140" y="460" as="sourcePoint" />
            <mxPoint x="670" y="520" as="targetPoint" />
            <Array as="points">
              <mxPoint x="1140" y="600" />
              <mxPoint x="180" y="600" />
            </Array>
          </mxGeometry>
        </mxCell>
        <mxCell id="kP2N72a48AvkfkjGi34w-158" style="edgeStyle=orthogonalEdgeStyle;rounded=0;orthogonalLoop=1;jettySize=auto;html=1;entryX=0;entryY=0.5;entryDx=0;entryDy=0;fillColor=#fad7ac;strokeColor=#b46504;" parent="1" source="kP2N72a48AvkfkjGi34w-159" target="kP2N72a48AvkfkjGi34w-161" edge="1">
          <mxGeometry relative="1" as="geometry" />
        </mxCell>
        <mxCell id="kP2N72a48AvkfkjGi34w-159" value="" style="ellipse;whiteSpace=wrap;html=1;aspect=fixed;fillColor=#fad7ac;strokeColor=#b46504;" parent="1" vertex="1">
          <mxGeometry x="863" y="320" width="20" height="20" as="geometry" />
        </mxCell>
        <mxCell id="kP2N72a48AvkfkjGi34w-160" style="edgeStyle=orthogonalEdgeStyle;rounded=0;orthogonalLoop=1;jettySize=auto;html=1;fillColor=#fad7ac;strokeColor=#b46504;" parent="1" source="kP2N72a48AvkfkjGi34w-161" edge="1">
          <mxGeometry relative="1" as="geometry">
            <mxPoint x="983" y="330" as="targetPoint" />
          </mxGeometry>
        </mxCell>
        <mxCell id="kP2N72a48AvkfkjGi34w-161" value="\(\frac{1}{sL_a+R_a}\)" style="rounded=0;whiteSpace=wrap;html=1;fillColor=#fad7ac;fontSize=11;strokeColor=#b46504;" parent="1" vertex="1">
          <mxGeometry x="913" y="310" width="40" height="40" as="geometry" />
        </mxCell>
        <mxCell id="kP2N72a48AvkfkjGi34w-162" style="edgeStyle=orthogonalEdgeStyle;rounded=0;orthogonalLoop=1;jettySize=auto;html=1;fillColor=#fad7ac;strokeColor=#b46504;" parent="1" source="kP2N72a48AvkfkjGi34w-163" target="kP2N72a48AvkfkjGi34w-164" edge="1">
          <mxGeometry relative="1" as="geometry" />
        </mxCell>
        <mxCell id="kP2N72a48AvkfkjGi34w-163" value="\(k_m\)" style="rounded=0;whiteSpace=wrap;html=1;fillColor=#fad7ac;fontSize=11;strokeColor=#b46504;" parent="1" vertex="1">
          <mxGeometry x="983" y="320" width="20" height="20" as="geometry" />
        </mxCell>
        <mxCell id="kP2N72a48AvkfkjGi34w-164" value="" style="ellipse;whiteSpace=wrap;html=1;aspect=fixed;fillColor=#fad7ac;strokeColor=#b46504;" parent="1" vertex="1">
          <mxGeometry x="1023" y="320" width="20" height="20" as="geometry" />
        </mxCell>
        <mxCell id="kP2N72a48AvkfkjGi34w-165" style="edgeStyle=orthogonalEdgeStyle;rounded=0;orthogonalLoop=1;jettySize=auto;html=1;entryX=0;entryY=0.5;entryDx=0;entryDy=0;fillColor=#fad7ac;strokeColor=#b46504;" parent="1" target="kP2N72a48AvkfkjGi34w-168" edge="1">
          <mxGeometry relative="1" as="geometry">
            <mxPoint x="1043" y="330" as="sourcePoint" />
          </mxGeometry>
        </mxCell>
        <mxCell id="kP2N72a48AvkfkjGi34w-166" style="edgeStyle=orthogonalEdgeStyle;rounded=0;orthogonalLoop=1;jettySize=auto;html=1;fillColor=#fad7ac;strokeColor=#b46504;" parent="1" source="kP2N72a48AvkfkjGi34w-168" edge="1">
          <mxGeometry relative="1" as="geometry">
            <mxPoint x="1153" y="330" as="targetPoint" />
          </mxGeometry>
        </mxCell>
        <mxCell id="kP2N72a48AvkfkjGi34w-167" style="edgeStyle=orthogonalEdgeStyle;rounded=0;orthogonalLoop=1;jettySize=auto;html=1;entryX=1;entryY=0.5;entryDx=0;entryDy=0;fillColor=#fad7ac;strokeColor=#b46504;" parent="1" source="kP2N72a48AvkfkjGi34w-168" target="kP2N72a48AvkfkjGi34w-170" edge="1">
          <mxGeometry relative="1" as="geometry">
            <Array as="points">
              <mxPoint x="1093" y="370" />
            </Array>
          </mxGeometry>
        </mxCell>
        <mxCell id="kP2N72a48AvkfkjGi34w-168" value="\(\frac{1}{sj+b}\)" style="rounded=0;whiteSpace=wrap;html=1;fillColor=#fad7ac;fontSize=11;strokeColor=#b46504;" parent="1" vertex="1">
          <mxGeometry x="1073" y="310" width="40" height="40" as="geometry" />
        </mxCell>
        <mxCell id="kP2N72a48AvkfkjGi34w-169" style="edgeStyle=orthogonalEdgeStyle;rounded=0;orthogonalLoop=1;jettySize=auto;html=1;entryX=0.5;entryY=1;entryDx=0;entryDy=0;fillColor=#fad7ac;strokeColor=#b46504;" parent="1" source="kP2N72a48AvkfkjGi34w-170" target="kP2N72a48AvkfkjGi34w-159" edge="1">
          <mxGeometry relative="1" as="geometry" />
        </mxCell>
        <mxCell id="kP2N72a48AvkfkjGi34w-170" value="\(k_m\)" style="rounded=0;whiteSpace=wrap;html=1;fillColor=#fad7ac;fontSize=11;strokeColor=#b46504;" parent="1" vertex="1">
          <mxGeometry x="983" y="360" width="20" height="20" as="geometry" />
        </mxCell>
        <mxCell id="kP2N72a48AvkfkjGi34w-171" style="edgeStyle=orthogonalEdgeStyle;rounded=0;orthogonalLoop=1;jettySize=auto;html=1;entryX=0;entryY=0.5;entryDx=0;entryDy=0;fillColor=#fad7ac;strokeColor=#b46504;" parent="1" edge="1">
          <mxGeometry relative="1" as="geometry">
            <mxPoint x="833" y="329.88" as="sourcePoint" />
            <mxPoint x="863" y="329.88" as="targetPoint" />
          </mxGeometry>
        </mxCell>
        <mxCell id="kP2N72a48AvkfkjGi34w-172" value="" style="endArrow=none;dashed=1;html=1;strokeWidth=1;rounded=0;entryX=1;entryY=1;entryDx=0;entryDy=0;fillColor=#fad7ac;strokeColor=#b46504;" parent="1" target="kP2N72a48AvkfkjGi34w-88" edge="1">
          <mxGeometry width="50" height="50" relative="1" as="geometry">
            <mxPoint x="970" y="440" as="sourcePoint" />
            <mxPoint x="1020" y="390" as="targetPoint" />
          </mxGeometry>
        </mxCell>
        <mxCell id="kP2N72a48AvkfkjGi34w-173" value="" style="endArrow=none;dashed=1;html=1;strokeWidth=1;rounded=0;entryX=0;entryY=1;entryDx=0;entryDy=0;fillColor=#fad7ac;strokeColor=#b46504;" parent="1" target="kP2N72a48AvkfkjGi34w-88" edge="1">
          <mxGeometry width="50" height="50" relative="1" as="geometry">
            <mxPoint x="880" y="440" as="sourcePoint" />
            <mxPoint x="930" y="390" as="targetPoint" />
          </mxGeometry>
        </mxCell>
      </root>
    </mxGraphModel>
  </diagram>
</mxfile>
